<svg width="48" height="48" viewBox="0 0 48 48" fill="none" xmlns="http://www.w3.org/2000/svg">
<g clip-path="url(#clip0_453_97)">
<mask id="mask0_453_97" style="mask-type:alpha" maskUnits="userSpaceOnUse" x="0" y="0" width="48" height="48">
<rect width="48" height="48" fill="#D9D9D9"/>
</mask>
<g mask="url(#mask0_453_97)">
<path d="M39.4758 48C40.6975 48 41.7432 47.565 42.6129 46.6949C43.4829 45.8252 43.918 44.7795 43.918 43.5578V4.4746C43.918 3.24401 43.4829 2.19059 42.6129 1.31436C41.7432 0.438119 40.6975 0 39.4758 0H17.6182V4.4746H39.4758V43.5578H12.4424V37.5738H8.00019V43.5578C8.00019 44.7795 8.43522 45.8252 9.30528 46.6949C10.175 47.565 11.2206 48 12.4424 48H39.4758ZM33.7436 37.5738V33.9173H17.6181V37.5738H33.7436ZM33.7436 30.2985V26.9692H24.1803V30.2985H33.7436Z" fill="url(#paint0_linear_453_97)"/>
<path d="M4 33.3806V2.5L28.7045 17.9403L4 33.3806Z" fill="url(#paint1_linear_453_97)"/>
</g>
</g>
<defs>
<linearGradient id="paint0_linear_453_97" x1="25.9591" y1="0" x2="25.9591" y2="48" gradientUnits="userSpaceOnUse">
<stop offset="0.33" stop-color="#EEEEF0"/>
<stop offset="1" stop-color="#B5B2BC"/>
</linearGradient>
<linearGradient id="paint1_linear_453_97" x1="16.3522" y1="2.5" x2="16.3522" y2="33.3806" gradientUnits="userSpaceOnUse">
<stop offset="0.33" stop-color="#E54666"/>
<stop offset="1" stop-color="#B3445A"/>
</linearGradient>
<clipPath id="clip0_453_97">
<rect width="48" height="48" fill="white"/>
</clipPath>
</defs>
</svg>
